# xmcd CD database file
#
# Track frame offsets:
#	150
#	13817
#	27589
#	41029
#	55930
#	68891
#	83441
#	97741
#	111961
#	126071
#	140119
#	154001
#	165866
#	179150
#	192147
#	211947
#
# Disc length: 3024 seconds
#
# Revision: 0
# Processed by: cddbd v1.5.2PL0 Copyright (c) Steve Scherf et al.
# Submitted via: CDex 1.70beta2
#
DISCID=d70bce10
DTITLE=Various Artist - 202_JAZZ_LEGENDARY_SWINGERS
DYEAR=2010
DGENRE=Jazz
TTITLE0=KEEP_IT_IN_THE_GROOVE
TTITLE1=ONE_O_CLOCK_JUMP
TTITLE2=SOMEWHERE_ALLONG_THE_WAY
TTITLE3=YANCEY_SPECIAL
TTITLE4=MAHOGANY_HALL_STOMP
TTITLE5=SOMETHING_TO_LIVE_FOR
TTITLE6=JUMPIN_AT_THE_WOODSIDE
TTITLE7=SEPIAN_BOUNCE
TTITLE8=WHEN_THE_SUN_SETS_DOWN_SOUTH
TTITLE9=NIGHT_HOP
TTITLE10=BLUES_IN_THE_DARK
TTITLE11=MELANCHOLY
TTITLE12=MOOD_INDIGO
TTITLE13=BLUE_SERGE
TTITLE14=BODY_AND_SOUL
TTITLE15=BLOW_TOP_BLUES
EXTD=YEAR: 2010
EXTT0=
EXTT1=
EXTT2=
EXTT3=
EXTT4=
EXTT5=
EXTT6=
EXTT7=
EXTT8=
EXTT9=
EXTT10=
EXTT11=
EXTT12=
EXTT13=
EXTT14=
EXTT15=
PLAYORDER=
